<?xml version="1.0" encoding="UTF-8" standalone="no"?>
<svg
   xmlns:dc="http://purl.org/dc/elements/1.1/"
   xmlns:cc="http://creativecommons.org/ns#"
   xmlns:rdf="http://www.w3.org/1999/02/22-rdf-syntax-ns#"
   xmlns:svg="http://www.w3.org/2000/svg"
   xmlns="http://www.w3.org/2000/svg"
   xmlns:sodipodi="http://sodipodi.sourceforge.net/DTD/sodipodi-0.dtd"
   xmlns:inkscape="http://www.inkscape.org/namespaces/inkscape"
   version="1.1"
   x="0px"
   y="0px"
   viewBox="0 0 822.19999 834.5"
   enable-background="new 0 0 1133.9 1133.9"
   xml:space="preserve"
   id="svg8"
   sodipodi:docname="icon.svg"
   inkscape:version="0.92.5 (2060ec1f9f, 2020-04-08)"
   width="822.20001"
   height="834.5"
   inkscape:export-filename="/home/theodore/code/global-journey/src/assets/icon.png"
   inkscape:export-xdpi="29.423498"
   inkscape:export-ydpi="29.423498"><metadata
     id="metadata14"><rdf:RDF><cc:Work
         rdf:about=""><dc:format>image/svg+xml</dc:format><dc:type
           rdf:resource="http://purl.org/dc/dcmitype/StillImage" /><dc:title /></cc:Work></rdf:RDF></metadata><defs
     id="defs12" /><sodipodi:namedview
     pagecolor="#ffffff"
     bordercolor="#666666"
     borderopacity="1"
     objecttolerance="10"
     gridtolerance="10"
     guidetolerance="10"
     inkscape:pageopacity="0"
     inkscape:pageshadow="2"
     inkscape:window-width="1440"
     inkscape:window-height="875"
     id="namedview10"
     showgrid="false"
     inkscape:zoom="0.66601994"
     inkscape:cx="412.10369"
     inkscape:cy="414.82437"
     inkscape:window-x="1366"
     inkscape:window-y="0"
     inkscape:window-maximized="1"
     inkscape:current-layer="svg8"
     fit-margin-top="0"
     fit-margin-left="0"
     fit-margin-right="0"
     fit-margin-bottom="0" /><path
     d="m 596.2,244.6 c 0,-10.5 -8.5,-19 -19,-19 -3,0 -5.7,0.7 -8.2,2 C 525.1,189.7 469.8,169 411.2,169 c -64.7,0 -125.5,25.2 -171.2,70.9 -45.7,45.7 -70.9,106.5 -70.9,171.2 0,64.7 25.2,125.5 70.9,171.2 45.7,45.7 106.5,70.9 171.2,70.9 64.7,0 125.5,-25.2 171.2,-70.9 45.7,-45.7 70.9,-106.5 70.9,-171.2 0,-3.7 -3,-6.7 -6.7,-6.7 -3.7,0 -6.7,3 -6.7,6.7 0,61.1 -23.8,118.5 -67,161.7 -43.2,43.2 -100.6,67 -161.7,67 -61.1,0 -118.5,-23.8 -161.7,-67 -43.2,-43.2 -67,-100.6 -67,-161.7 0,-61.1 23.8,-118.5 67,-161.7 43.2,-43.2 100.6,-67 161.7,-67 55.1,0 107.1,19.4 148.5,54.8 -1,2.3 -1.5,4.8 -1.5,7.4 0,10.5 8.5,19 19,19 10.5,0 19,-8.5 19,-19 z M 180.2,642 c 61.7,61.7 143.7,95.7 230.9,95.7 87.2,0 169.3,-34 230.9,-95.7 61.6,-61.7 95.7,-143.7 95.7,-230.9 0,-87.2 -34,-169.3 -95.7,-230.9 -61.7,-61.6 -143.7,-95.7 -230.9,-95.7 -3.7,0 -6.7,3 -6.7,6.7 0,3.7 3,6.7 6.7,6.7 83.7,0 162.3,32.6 221.5,91.7 59.2,59.2 91.7,137.8 91.7,221.5 0,83.7 -32.6,162.3 -91.7,221.5 -59.2,59.1 -137.8,91.7 -221.5,91.7 -83.7,0 -162.3,-32.6 -221.5,-91.7 -59.2,-59.2 -91.7,-137.8 -91.7,-221.5 0,-77.8 28.2,-151.2 79.7,-208.6 2.3,0.9 4.7,1.5 7.3,1.5 10.5,0 19,-8.5 19,-19 0,-10.5 -8.5,-19 -19,-19 -10.5,0 -19,8.5 -19,19 0,3 0.8,5.8 2,8.3 -53.9,60 -83.4,136.7 -83.4,217.9 0,87.1 34,169.1 95.7,230.8 z M 520.3,310.3 c -12.8,6 -27.8,10.8 -44.2,14.3 -8.1,-24.9 -19.4,-44.6 -32.9,-56.9 29.9,6.5 56.5,21.6 77.1,42.6 z M 346.2,410.5 c 0.5,-25.5 3.9,-49.5 9.5,-70.4 17.6,3 36.3,4.6 55.4,4.6 19.1,0 37.8,-1.6 55.4,-4.6 5.6,20.9 9,44.9 9.5,70.4 z m 129.9,13.4 c -0.5,25.1 -3.8,48.9 -9.3,69.5 -17.7,-3 -36.5,-4.6 -55.7,-4.6 -19.2,0 -38,1.6 -55.7,4.6 -5.4,-20.7 -8.8,-44.4 -9.3,-69.5 z m -65,-156.6 c 20.7,0 39.6,23.8 51.6,59.9 -16.4,2.7 -33.8,4.1 -51.6,4.1 -17.8,0 -35.2,-1.4 -51.6,-4.1 12.1,-36.1 30.9,-59.9 51.6,-59.9 z m -32.1,0.5 c -13.4,12.2 -24.8,32 -32.9,56.9 -16.4,-3.5 -31.4,-8.3 -44.2,-14.3 20.7,-21.1 47.3,-36.2 77.1,-42.6 z m -86.3,52.9 c 14.2,7.1 31.1,12.8 49.7,16.8 -5.7,21.6 -9.1,46.4 -9.6,73 h -74.4 c 1.5,-33.9 14.1,-65.1 34.3,-89.8 z m -0.5,192.4 c -19.9,-24.6 -32.3,-55.5 -33.8,-89.2 h 74.4 c 0.5,26.2 3.8,50.7 9.4,72.1 -18.7,4.2 -35.8,9.9 -50,17.1 z m 9.2,10.4 c 12.9,-6.1 28,-11 44.5,-14.6 8.1,25.3 19.6,45.3 33.1,57.7 -30.1,-6.4 -56.9,-21.7 -77.6,-43.1 z m 109.7,43.6 c -20.9,0 -39.9,-24.1 -51.9,-60.7 16.4,-2.7 34,-4.2 51.9,-4.2 17.9,0 35.4,1.5 51.9,4.2 -12,36.6 -31,60.7 -51.9,60.7 z m 32.2,-0.4 c 13.6,-12.4 25,-32.4 33.1,-57.7 16.5,3.6 31.6,8.5 44.5,14.6 -20.7,21.3 -47.5,36.6 -77.6,43.1 z m 86.8,-53.6 c -14.3,-7.2 -31.3,-12.9 -50,-17 5.6,-21.4 8.9,-45.9 9.4,-72.1 h 74.4 c -1.5,33.6 -13.9,64.5 -33.8,89.1 z m 33.7,-102.6 h -74.4 c -0.5,-26.6 -3.9,-51.3 -9.6,-73 18.6,-4.1 35.5,-9.7 49.7,-16.8 20.3,24.7 32.9,55.9 34.3,89.8 z m 138,-290.1 C 624.2,42.7 520.9,0 411.1,0 301.3,0 198.1,42.8 120.4,120.4 42.8,198 0,301.3 0,411.1 c 0,109.8 42.8,213 120.4,290.7 2.6,2.6 6.9,2.6 9.5,0 2.6,-2.6 2.6,-6.9 0,-9.5 C 54.8,617.2 13.4,517.3 13.4,411.1 13.4,304.9 54.8,205 129.9,129.9 205,54.8 304.9,13.4 411.1,13.4 c 106.2,0 206.1,41.4 281.2,116.5 75.1,75.1 116.5,175 116.5,281.2 0,106.2 -41.4,206.1 -116.5,281.2 -70.5,70.5 -162.8,111.2 -261.7,116 -2.8,-6.9 -9.6,-11.8 -17.6,-11.8 -10.5,0 -19,8.5 -19,19 0,10.5 8.5,19 19,19 8.3,0 15.3,-5.4 17.9,-12.8 102.4,-4.8 197.9,-47 270.8,-119.9 C 779.5,624.1 822.2,520.9 822.2,411.1 822.2,301.3 779.5,198 701.8,120.4 Z"
     id="path2"
     style="fill:#00d07f;fill-opacity:1"
     inkscape:export-xdpi="116.76452"
     inkscape:export-ydpi="116.76452"
     inkscape:connector-curvature="0" /></svg>